%TF.GenerationSoftware,KiCad,Pcbnew,9.0.3*%
%TF.CreationDate,2025-08-16T18:10:03-03:00*%
%TF.ProjectId,CANBusTerminator,43414e42-7573-4546-9572-6d696e61746f,rev?*%
%TF.SameCoordinates,Original*%
%TF.FileFunction,Legend,Top*%
%TF.FilePolarity,Positive*%
%FSLAX46Y46*%
G04 Gerber Fmt 4.6, Leading zero omitted, Abs format (unit mm)*
G04 Created by KiCad (PCBNEW 9.0.3) date 2025-08-16 18:10:03*
%MOMM*%
%LPD*%
G01*
G04 APERTURE LIST*
%ADD10C,0.150000*%
%ADD11C,0.120000*%
G04 APERTURE END LIST*
D10*
X175704819Y-91566666D02*
X175228628Y-91899999D01*
X175704819Y-92138094D02*
X174704819Y-92138094D01*
X174704819Y-92138094D02*
X174704819Y-91757142D01*
X174704819Y-91757142D02*
X174752438Y-91661904D01*
X174752438Y-91661904D02*
X174800057Y-91614285D01*
X174800057Y-91614285D02*
X174895295Y-91566666D01*
X174895295Y-91566666D02*
X175038152Y-91566666D01*
X175038152Y-91566666D02*
X175133390Y-91614285D01*
X175133390Y-91614285D02*
X175181009Y-91661904D01*
X175181009Y-91661904D02*
X175228628Y-91757142D01*
X175228628Y-91757142D02*
X175228628Y-92138094D01*
X175704819Y-90614285D02*
X175704819Y-91185713D01*
X175704819Y-90899999D02*
X174704819Y-90899999D01*
X174704819Y-90899999D02*
X174847676Y-90995237D01*
X174847676Y-90995237D02*
X174942914Y-91090475D01*
X174942914Y-91090475D02*
X174990533Y-91185713D01*
X190404819Y-91566666D02*
X189928628Y-91899999D01*
X190404819Y-92138094D02*
X189404819Y-92138094D01*
X189404819Y-92138094D02*
X189404819Y-91757142D01*
X189404819Y-91757142D02*
X189452438Y-91661904D01*
X189452438Y-91661904D02*
X189500057Y-91614285D01*
X189500057Y-91614285D02*
X189595295Y-91566666D01*
X189595295Y-91566666D02*
X189738152Y-91566666D01*
X189738152Y-91566666D02*
X189833390Y-91614285D01*
X189833390Y-91614285D02*
X189881009Y-91661904D01*
X189881009Y-91661904D02*
X189928628Y-91757142D01*
X189928628Y-91757142D02*
X189928628Y-92138094D01*
X189500057Y-91185713D02*
X189452438Y-91138094D01*
X189452438Y-91138094D02*
X189404819Y-91042856D01*
X189404819Y-91042856D02*
X189404819Y-90804761D01*
X189404819Y-90804761D02*
X189452438Y-90709523D01*
X189452438Y-90709523D02*
X189500057Y-90661904D01*
X189500057Y-90661904D02*
X189595295Y-90614285D01*
X189595295Y-90614285D02*
X189690533Y-90614285D01*
X189690533Y-90614285D02*
X189833390Y-90661904D01*
X189833390Y-90661904D02*
X190404819Y-91233332D01*
X190404819Y-91233332D02*
X190404819Y-90614285D01*
X189666666Y-78004819D02*
X189666666Y-78719104D01*
X189666666Y-78719104D02*
X189619047Y-78861961D01*
X189619047Y-78861961D02*
X189523809Y-78957200D01*
X189523809Y-78957200D02*
X189380952Y-79004819D01*
X189380952Y-79004819D02*
X189285714Y-79004819D01*
X190095238Y-78100057D02*
X190142857Y-78052438D01*
X190142857Y-78052438D02*
X190238095Y-78004819D01*
X190238095Y-78004819D02*
X190476190Y-78004819D01*
X190476190Y-78004819D02*
X190571428Y-78052438D01*
X190571428Y-78052438D02*
X190619047Y-78100057D01*
X190619047Y-78100057D02*
X190666666Y-78195295D01*
X190666666Y-78195295D02*
X190666666Y-78290533D01*
X190666666Y-78290533D02*
X190619047Y-78433390D01*
X190619047Y-78433390D02*
X190047619Y-79004819D01*
X190047619Y-79004819D02*
X190666666Y-79004819D01*
X171666666Y-77804819D02*
X171666666Y-78519104D01*
X171666666Y-78519104D02*
X171619047Y-78661961D01*
X171619047Y-78661961D02*
X171523809Y-78757200D01*
X171523809Y-78757200D02*
X171380952Y-78804819D01*
X171380952Y-78804819D02*
X171285714Y-78804819D01*
X172666666Y-78804819D02*
X172095238Y-78804819D01*
X172380952Y-78804819D02*
X172380952Y-77804819D01*
X172380952Y-77804819D02*
X172285714Y-77947676D01*
X172285714Y-77947676D02*
X172190476Y-78042914D01*
X172190476Y-78042914D02*
X172095238Y-78090533D01*
D11*
%TO.C,R1*%
X172865000Y-91172936D02*
X172865000Y-91627064D01*
X174335000Y-91172936D02*
X174335000Y-91627064D01*
%TO.C,R2*%
X187565000Y-91172936D02*
X187565000Y-91627064D01*
X189035000Y-91172936D02*
X189035000Y-91627064D01*
%TO.C,J2*%
X184890000Y-79340000D02*
X187300000Y-79340000D01*
X184890000Y-81750000D02*
X184890000Y-79340000D01*
X185190000Y-79640000D02*
X185190000Y-88360000D01*
X185190000Y-88360000D02*
X194810000Y-88360000D01*
X185800000Y-81250000D02*
X185800000Y-86750000D01*
X185800000Y-86750000D02*
X188100000Y-86750000D01*
X188100000Y-86750000D02*
X188100000Y-87750000D01*
X188100000Y-87750000D02*
X190700000Y-87750000D01*
X190700000Y-86750000D02*
X191600000Y-86750000D01*
X190700000Y-87750000D02*
X190700000Y-86750000D01*
X191600000Y-86750000D02*
X191600000Y-87750000D01*
X191600000Y-87750000D02*
X194200000Y-87750000D01*
X194200000Y-81250000D02*
X185800000Y-81250000D01*
X194200000Y-87750000D02*
X194200000Y-81250000D01*
X194810000Y-79640000D02*
X185190000Y-79640000D01*
X194810000Y-88360000D02*
X194810000Y-79640000D01*
%TO.C,J1*%
X166890000Y-79140000D02*
X169300000Y-79140000D01*
X166890000Y-81550000D02*
X166890000Y-79140000D01*
X167190000Y-79440000D02*
X167190000Y-88160000D01*
X167190000Y-88160000D02*
X176810000Y-88160000D01*
X167800000Y-81050000D02*
X167800000Y-86550000D01*
X167800000Y-86550000D02*
X170100000Y-86550000D01*
X170100000Y-86550000D02*
X170100000Y-87550000D01*
X170100000Y-87550000D02*
X172700000Y-87550000D01*
X172700000Y-86550000D02*
X173600000Y-86550000D01*
X172700000Y-87550000D02*
X172700000Y-86550000D01*
X173600000Y-86550000D02*
X173600000Y-87550000D01*
X173600000Y-87550000D02*
X176200000Y-87550000D01*
X176200000Y-81050000D02*
X167800000Y-81050000D01*
X176200000Y-87550000D02*
X176200000Y-81050000D01*
X176810000Y-79440000D02*
X167190000Y-79440000D01*
X176810000Y-88160000D02*
X176810000Y-79440000D01*
%TD*%
M02*
