%TF.GenerationSoftware,KiCad,Pcbnew,9.0.3*%
%TF.CreationDate,2025-08-16T18:10:03-03:00*%
%TF.ProjectId,CANBusTerminator,43414e42-7573-4546-9572-6d696e61746f,rev?*%
%TF.SameCoordinates,Original*%
%TF.FileFunction,Legend,Bot*%
%TF.FilePolarity,Positive*%
%FSLAX46Y46*%
G04 Gerber Fmt 4.6, Leading zero omitted, Abs format (unit mm)*
G04 Created by KiCad (PCBNEW 9.0.3) date 2025-08-16 18:10:03*
%MOMM*%
%LPD*%
G01*
G04 APERTURE LIST*
%ADD10C,0.100000*%
%ADD11C,0.120000*%
G04 APERTURE END LIST*
D10*
X187619925Y-78872419D02*
X188096115Y-78872419D01*
X188096115Y-78872419D02*
X188096115Y-77872419D01*
X174096115Y-78672419D02*
X174096115Y-77672419D01*
X174096115Y-78148609D02*
X173524687Y-78148609D01*
X173524687Y-78672419D02*
X173524687Y-77672419D01*
X169619925Y-78672419D02*
X170096115Y-78672419D01*
X170096115Y-78672419D02*
X170096115Y-77672419D01*
X192096115Y-78872419D02*
X192096115Y-77872419D01*
X192096115Y-78348609D02*
X191524687Y-78348609D01*
X191524687Y-78872419D02*
X191524687Y-77872419D01*
D11*
%TO.C,SW1*%
X178950000Y-90300000D02*
X183150000Y-90300000D01*
X178950000Y-90650000D02*
X178950000Y-90300000D01*
X178950000Y-98300000D02*
X178950000Y-99500000D01*
X178950000Y-99500000D02*
X183150000Y-99500000D01*
X183150000Y-90300000D02*
X183150000Y-91500000D01*
X183150000Y-99500000D02*
X183150000Y-98300000D01*
X178950000Y-91400000D02*
X178470000Y-91400000D01*
X178950000Y-90920000D01*
X178950000Y-91400000D01*
G36*
X178950000Y-91400000D02*
G01*
X178470000Y-91400000D01*
X178950000Y-90920000D01*
X178950000Y-91400000D01*
G37*
%TD*%
M02*
